<?xml version="1.0" encoding="utf-8"?>
<!-- Generator: Adobe Illustrator 21.1.0, SVG Export Plug-In . SVG Version: 6.00 Build 0)  -->
<svg version="1.1" id="Layer_1" xmlns="http://www.w3.org/2000/svg" xmlns:xlink="http://www.w3.org/1999/xlink" x="0px" y="0px"
	 viewBox="0 0 128 128" style="enable-background:new 0 0 128 128;" xml:space="preserve">
<style type="text/css">
	.st0{fill:#008FD5;}
	.st1{fill:#006FA8;}
	.st2{fill:#FFFFFF;}
</style>
<title></title>
<circle class="st0" cx="64" cy="64" r="60"/>
<g>
	<path class="st1" d="M57,79.3c-0.1-0.5-0.1-1.1-0.1-1.6s0-1,0-1.6c-0.1-2.7,0.4-5.3,1.4-7.8c0.9-2.1,2.1-4,3.6-5.7
		c1.4-1.6,3.1-3,4.8-4.2c1.7-1.2,3.3-2.4,4.8-3.6c1.3-1.1,2.6-2.3,3.6-3.7c1-1.3,1.5-2.9,1.4-4.5c0.1-2.3-1.1-4.4-3-5.7
		c-2-1.4-5-2.1-9.2-2.1c-2,0-3.9,0.3-5.8,0.9c-1.7,0.6-3.3,1.3-4.9,2.2c-1.4,0.8-2.7,1.7-4,2.7c-1.2,0.9-2.2,1.7-3.1,2.3l-6.6-8.6
		c1.7-1.8,3.5-3.4,5.6-4.7c2.1-1.4,4.3-2.5,6.6-3.4c2.3-0.9,4.7-1.6,7.2-2c2.4-0.4,4.8-0.7,7.2-0.7c7.4,0,13.2,1.6,17.3,4.7
		c4,2.9,6.3,7.6,6.2,12.5c0.1,3-0.4,5.9-1.6,8.6c-1,2.2-2.3,4.1-3.9,5.8c-1.6,1.6-3.4,3-5.3,4.2c-1.8,1.2-3.6,2.5-5.2,3.9
		c-1.6,1.4-3,3-4,4.8c-1.2,2.2-1.7,4.6-1.6,7L57,79.3z M55,93.8c-0.1-2.1,0.7-4.2,2.2-5.7c1.6-1.4,3.8-2.2,5.9-2.1
		c2.2-0.1,4.4,0.6,6.1,2.1c1.5,1.5,2.4,3.5,2.2,5.7c0.1,2.1-0.7,4.2-2.2,5.7c-1.7,1.5-3.9,2.3-6.1,2.1c-2.2,0.1-4.3-0.7-5.9-2.1
		C55.7,98,54.9,95.9,55,93.8L55,93.8z"/>
	<path class="st2" d="M54.9,78.1c-0.1-0.5-0.1-1.1-0.1-1.6c0-0.5,0-1,0-1.6c-0.1-2.7,0.4-5.3,1.4-7.8c0.9-2.1,2.1-4,3.6-5.7
		c1.4-1.6,3.1-3,4.8-4.2c1.7-1.2,3.3-2.4,4.8-3.6c1.3-1.1,2.6-2.3,3.6-3.7c1-1.3,1.5-2.9,1.4-4.5c0.1-2.3-1.1-4.4-3-5.7
		c-2-1.4-5-2.1-9.2-2.1c-2,0-3.9,0.3-5.8,0.9c-1.7,0.6-3.3,1.3-4.9,2.2c-1.4,0.8-2.7,1.7-4,2.7c-1.2,0.9-2.2,1.7-3.1,2.3l-6.6-8.6
		c1.7-1.8,3.5-3.4,5.6-4.7c2.1-1.4,4.3-2.5,6.6-3.4c2.3-0.9,4.7-1.6,7.2-2c2.4-0.4,4.8-0.7,7.2-0.7c7.4,0,13.2,1.6,17.3,4.7
		c4,2.9,6.3,7.6,6.2,12.5c0.1,3-0.4,5.9-1.6,8.6c-1,2.2-2.3,4.1-3.9,5.8c-1.6,1.6-3.4,3-5.3,4.2c-1.8,1.2-3.6,2.5-5.2,3.9
		c-1.6,1.4-3,3-4,4.8c-1.2,2.2-1.7,4.6-1.6,7L54.9,78.1z M52.8,92.6c-0.1-2.1,0.7-4.2,2.2-5.7c1.6-1.4,3.8-2.2,5.9-2.1
		c2.2-0.1,4.4,0.6,6.1,2.1c1.5,1.5,2.4,3.5,2.2,5.7c0.1,2.1-0.7,4.2-2.2,5.7c-1.7,1.5-3.9,2.3-6.1,2.1c-2.2,0.1-4.3-0.7-5.9-2.1
		C53.5,96.8,52.7,94.7,52.8,92.6L52.8,92.6z"/>
</g>
</svg>
